<mxfile host="app.diagrams.net" modified="2023-07-21T03:10:17.251Z" agent="Mozilla/5.0 (Windows NT 10.0; Win64; x64) AppleWebKit/537.36 (KHTML, like Gecko) Chrome/114.0.0.0 Safari/537.36" etag="ZwGPbU4Br_2uksi3GXE8" version="21.6.2" type="github">
  <diagram name="第 1 页" id="DsP0ySoP5KuVm8gyESEJ">
    <mxGraphModel dx="1434" dy="777" grid="1" gridSize="10" guides="1" tooltips="1" connect="1" arrows="1" fold="1" page="1" pageScale="1" pageWidth="827" pageHeight="1169" math="0" shadow="0">
      <root>
        <mxCell id="0" />
        <mxCell id="1" parent="0" />
        <mxCell id="JTM_hWVtwOP50AUBhIqX-2" value="" style="swimlane;startSize=0;" vertex="1" parent="1">
          <mxGeometry x="40" y="40" width="480" height="560" as="geometry" />
        </mxCell>
        <mxCell id="JTM_hWVtwOP50AUBhIqX-3" value="" style="swimlane;startSize=0;" vertex="1" parent="1">
          <mxGeometry x="520" y="40" width="480" height="560" as="geometry" />
        </mxCell>
      </root>
    </mxGraphModel>
  </diagram>
</mxfile>
